<?xml version="1.0" standalone="no"?>
<!DOCTYPE svg PUBLIC "-//W3C//DTD SVG 20010904//EN"
 "http://www.w3.org/TR/2001/REC-SVG-20010904/DTD/svg10.dtd">
<svg version="1.0" xmlns="http://www.w3.org/2000/svg"
 width="500.000000pt" height="500.000000pt" viewBox="0 0 500.000000 500.000000"
 preserveAspectRatio="xMidYMid meet">

<g transform="translate(0.000000,500.000000) scale(0.100000,-0.100000)"
fill="#000000" stroke="none">
<path d="M0 2500 l0 -2500 2500 0 2500 0 0 2500 0 2500 -2500 0 -2500 0 0
-2500z m4420 705 c47 -8 101 -19 121 -25 36 -10 37 -10 31 -58 -2 -26 -6 -48
-7 -50 -2 -2 -28 11 -58 28 -30 17 -92 45 -138 62 -73 28 -97 32 -184 32 -117
1 -172 -13 -220 -55 -66 -59 -55 -140 27 -200 24 -17 86 -51 138 -76 265 -127
340 -165 340 -175 0 -6 -47 -9 -137 -6 -138 4 -138 5 -232 47 -132 61 -202
104 -244 150 -42 47 -51 75 -45 136 19 165 275 245 608 190z m-3731 -254 c94
-138 171 -255 171 -260 0 -17 -126 -14 -143 3 -7 8 -74 103 -148 211 l-134
196 -3 -363 c-3 -331 4 -469 25 -525 4 -10 -7 -13 -41 -13 -25 0 -46 1 -46 3
0 1 7 38 15 82 11 61 14 178 15 498 l0 417 59 0 59 0 171 -249z m517 207 c-18
-109 -26 -214 -26 -341 0 -90 -4 -136 -10 -132 -6 4 -10 65 -10 148 -1 129 -7
205 -26 325 l-7 42 43 0 43 0 -7 -42z m894 -7 l0 -49 -62 19 c-98 31 -221 49
-380 56 l-148 6 0 -201 0 -202 88 0 c170 0 431 -13 426 -22 -3 -4 -120 -8
-260 -8 l-254 0 0 -35 0 -35 -70 0 -70 0 0 260 0 260 365 0 365 0 0 -49z m399
-198 c47 -137 86 -254 89 -261 3 -10 -12 -12 -68 -10 l-73 3 -88 255 c-49 140
-89 256 -89 258 0 1 33 2 73 2 l72 0 84 -247z m594 -7 c48 -140 87 -257 87
-260 0 -4 -32 -6 -72 -4 l-71 3 -28 80 c-15 47 -29 74 -32 65 -4 -8 -16 -42
-28 -75 -22 -61 -39 -90 -39 -67 0 7 14 53 31 101 l31 88 -56 162 -55 161 72
0 72 0 88 -254z m597 251 c0 -13 -173 -504 -181 -511 -15 -16 -11 8 17 91 36
111 64 261 64 348 l0 75 50 0 c28 0 50 -1 50 -3z m906 -618 c42 -61 46 -150
10 -224 -85 -173 -398 -223 -734 -118 -50 16 -53 19 -50 47 4 46 41 45 146 -3
119 -54 183 -71 268 -71 95 0 165 24 223 76 l46 42 -3 172 -3 172 34 -26 c19
-15 47 -45 63 -67z m-2613 -53 l3 69 2 -77 c1 -43 -2 -78 -7 -78 -5 0 -36 29
-69 65 l-61 65 -4 -68 -3 -67 -2 80 -2 79 70 -69 69 -68 4 69z m206 55 c8 -5
-4 -7 -32 -4 -39 5 -49 2 -71 -20 -14 -14 -26 -33 -26 -42 0 -9 12 -28 26 -42
22 -22 32 -25 70 -20 24 2 41 1 38 -4 -3 -5 -25 -9 -50 -9 -83 0 -123 74 -68
125 28 26 85 34 113 16z m304 -55 l3 69 2 -77 c1 -43 -1 -78 -4 -78 -4 0 -34
30 -68 67 l-61 67 -6 -70 -5 -69 -2 80 -2 79 70 -69 69 -68 4 69z m150 57
c-62 -4 -63 -4 -63 -33 0 -30 1 -30 58 -32 l57 -2 -57 -3 c-56 -4 -58 -5 -58
-33 0 -29 1 -29 63 -33 l62 -3 -67 -2 -68 -2 0 75 0 75 68 -2 67 -2 -62 -3z
m131 -17 c3 -13 14 -43 24 -67 l18 -43 24 67 c13 37 27 67 31 67 4 0 17 -29
30 -65 22 -62 24 -64 35 -43 6 13 18 42 25 66 6 23 16 42 20 42 4 0 -4 -34
-19 -75 -15 -41 -30 -75 -34 -75 -4 0 -17 27 -29 60 -12 33 -25 60 -28 60 -4
0 -16 -26 -27 -57 -12 -31 -25 -58 -30 -60 -5 -2 -21 31 -36 72 -14 41 -23 75
-18 75 4 0 11 -11 14 -24z m380 15 c3 -5 -13 -7 -37 -4 -76 7 -94 -39 -20 -53
69 -12 93 -40 61 -72 -14 -14 -83 -15 -113 -2 -14 6 -7 7 22 3 52 -7 93 3 93
22 0 18 -11 24 -68 38 -49 13 -64 35 -42 62 14 16 95 21 104 6z m-2094 -81 c0
-6 -75 -10 -205 -10 -130 0 -205 4 -205 10 0 6 75 10 205 10 130 0 205 -4 205
-10z m3300 0 c0 -6 -75 -10 -205 -10 -130 0 -205 4 -205 10 0 6 75 10 205 10
130 0 205 -4 205 -10z m-3221 -206 c19 -25 21 -25 21 -6 0 11 5 24 10 27 6 4
10 -17 10 -54 l0 -61 -65 0 -64 0 -36 52 c-19 29 -35 56 -35 60 0 5 31 8 69 8
63 0 71 -2 90 -26z m371 -24 l0 -50 74 0 c185 0 429 35 519 74 15 7 17 2 17
-43 l0 -51 -375 0 -375 0 0 60 0 60 70 0 70 0 0 -50z m1207 38 c6 -7 15 -26
20 -43 l11 -30 11 30 c6 17 14 37 17 45 5 11 8 12 11 3 3 -7 -3 -35 -12 -63
l-17 -50 -73 0 -73 0 -16 47 c-9 26 -16 53 -16 60 0 18 123 18 137 1z m590 0
c6 -7 15 -26 20 -43 l11 -30 11 30 c6 17 14 37 17 45 5 11 8 12 11 3 3 -7 -3
-35 -12 -63 l-17 -50 -71 0 -72 0 -18 49 c-9 27 -17 54 -17 60 0 16 125 15
137 -1z"/>
</g>
</svg>
