<?xml version="1.0" encoding="UTF-8"?>
<svg xmlns="http://www.w3.org/2000/svg" xmlns:xlink="http://www.w3.org/1999/xlink" width="256px" height="256px" viewBox="0 0 256 256" version="1.1">
<g id="surface1">
<path style=" stroke:none;fill-rule:nonzero;fill:rgb(0%,0%,0%);fill-opacity:1;" d="M 0 128 L 0 256 L 256 256 L 256 0 L 0 0 Z M 226.304688 91.902344 C 228.710938 92.3125 231.476562 92.875 232.5 93.183594 C 234.34375 93.695312 234.394531 93.695312 234.085938 96.152344 C 233.984375 97.484375 233.777344 98.609375 233.726562 98.714844 C 233.625 98.816406 232.292969 98.152344 230.757812 97.28125 C 229.222656 96.410156 226.046875 94.976562 223.691406 94.105469 C 219.957031 92.671875 218.726562 92.46875 214.273438 92.46875 C 208.28125 92.414062 205.464844 93.132812 203.007812 95.28125 C 199.628906 98.304688 200.191406 102.453125 204.390625 105.523438 C 205.621094 106.394531 208.792969 108.132812 211.457031 109.414062 C 225.023438 115.917969 228.863281 117.863281 228.863281 118.375 C 228.863281 118.679688 226.457031 118.835938 221.847656 118.679688 C 214.785156 118.476562 214.785156 118.425781 209.972656 116.273438 C 203.210938 113.152344 199.628906 110.949219 197.476562 108.59375 C 195.328125 106.1875 194.867188 104.753906 195.175781 101.632812 C 196.148438 93.183594 209.253906 89.089844 226.304688 91.902344 Z M 35.277344 104.910156 C 40.089844 111.972656 44.03125 117.964844 44.03125 118.222656 C 44.03125 119.089844 37.582031 118.9375 36.710938 118.066406 C 36.351562 117.65625 32.921875 112.792969 29.132812 107.265625 L 22.273438 97.230469 L 22.117188 115.8125 C 21.964844 132.761719 22.324219 139.828125 23.398438 142.695312 C 23.601562 143.207031 23.039062 143.359375 21.300781 143.359375 C 20.019531 143.359375 18.945312 143.308594 18.945312 143.207031 C 18.945312 143.15625 19.300781 141.261719 19.710938 139.007812 C 20.273438 135.886719 20.429688 129.894531 20.480469 113.511719 L 20.480469 92.160156 L 26.523438 92.160156 Z M 61.746094 94.308594 C 60.824219 99.890625 60.414062 105.265625 60.414062 111.769531 C 60.414062 116.378906 60.210938 118.734375 59.902344 118.527344 C 59.597656 118.324219 59.390625 115.199219 59.390625 110.949219 C 59.339844 104.34375 59.035156 100.453125 58.0625 94.308594 L 57.703125 92.160156 L 62.105469 92.160156 Z M 107.519531 94.667969 L 107.519531 97.175781 L 104.34375 96.203125 C 99.328125 94.617188 93.03125 93.695312 84.890625 93.335938 L 77.3125 93.03125 L 77.3125 113.664062 L 81.816406 113.664062 C 90.523438 113.664062 103.886719 114.328125 103.628906 114.789062 C 103.476562 114.996094 97.484375 115.199219 90.316406 115.199219 L 77.3125 115.199219 L 77.3125 118.785156 L 70.144531 118.785156 L 70.144531 92.160156 L 107.519531 92.160156 Z M 127.949219 104.804688 C 130.355469 111.820312 132.351562 117.8125 132.503906 118.167969 C 132.660156 118.679688 131.890625 118.785156 129.023438 118.679688 L 125.285156 118.527344 L 120.78125 105.472656 C 118.273438 98.304688 116.222656 92.363281 116.222656 92.261719 C 116.222656 92.210938 117.914062 92.160156 119.960938 92.160156 L 123.648438 92.160156 Z M 158.363281 105.164062 C 160.820312 112.332031 162.816406 118.324219 162.816406 118.476562 C 162.816406 118.679688 161.175781 118.785156 159.128906 118.679688 L 155.496094 118.527344 L 154.0625 114.433594 C 153.292969 112.027344 152.574219 110.644531 152.421875 111.105469 C 152.21875 111.511719 151.601562 113.253906 150.988281 114.945312 C 149.863281 118.066406 148.992188 119.550781 148.992188 118.375 C 148.992188 118.015625 149.707031 115.660156 150.578125 113.203125 L 152.167969 108.699219 L 149.300781 100.402344 L 146.484375 92.160156 L 153.855469 92.160156 Z M 188.929688 92.3125 C 188.929688 92.980469 180.070312 118.117188 179.660156 118.476562 C 178.894531 119.296875 179.097656 118.066406 180.53125 113.816406 C 182.375 108.132812 183.808594 100.453125 183.808594 96 L 183.808594 92.160156 L 186.367188 92.160156 C 187.800781 92.160156 188.929688 92.210938 188.929688 92.3125 Z M 235.316406 123.957031 C 237.464844 127.078125 237.671875 131.636719 235.828125 135.425781 C 231.476562 144.28125 215.449219 146.839844 198.246094 141.464844 C 195.6875 140.644531 195.53125 140.492188 195.6875 139.058594 C 195.890625 136.703125 197.785156 136.753906 203.160156 139.210938 C 209.253906 141.976562 212.53125 142.847656 216.882812 142.847656 C 221.746094 142.847656 225.332031 141.621094 228.300781 138.957031 L 230.65625 136.804688 L 230.503906 128 L 230.347656 119.195312 L 232.089844 120.523438 C 233.0625 121.292969 234.496094 122.828125 235.316406 123.957031 Z M 101.53125 126.667969 L 101.683594 123.136719 L 101.785156 127.078125 C 101.835938 129.28125 101.683594 131.070312 101.425781 131.070312 C 101.171875 131.070312 99.585938 129.585938 97.894531 127.742188 L 94.769531 124.414062 L 94.566406 127.898438 L 94.414062 131.328125 L 94.308594 127.230469 L 94.207031 123.1875 L 97.792969 126.71875 L 101.324219 130.203125 Z M 112.078125 123.851562 C 112.488281 124.109375 111.871094 124.210938 110.4375 124.058594 C 108.441406 123.800781 107.929688 123.957031 106.804688 125.082031 C 106.085938 125.796875 105.472656 126.769531 105.472656 127.230469 C 105.472656 127.691406 106.085938 128.664062 106.804688 129.382812 C 107.929688 130.507812 108.441406 130.664062 110.386719 130.40625 C 111.617188 130.304688 112.488281 130.355469 112.332031 130.609375 C 112.179688 130.867188 111.054688 131.070312 109.773438 131.070312 C 105.523438 131.070312 103.476562 127.28125 106.292969 124.671875 C 107.726562 123.339844 110.644531 122.929688 112.078125 123.851562 Z M 127.640625 126.667969 L 127.796875 123.136719 L 127.898438 127.078125 C 127.949219 129.28125 127.847656 131.070312 127.691406 131.070312 C 127.488281 131.070312 125.953125 129.535156 124.210938 127.640625 L 121.089844 124.210938 L 120.78125 127.796875 L 120.523438 131.328125 L 120.421875 127.230469 L 120.320312 123.1875 L 123.902344 126.71875 L 127.4375 130.203125 Z M 135.320312 123.75 C 132.148438 123.957031 132.097656 123.957031 132.097656 125.441406 C 132.097656 126.976562 132.148438 126.976562 135.066406 127.078125 L 137.984375 127.179688 L 135.066406 127.335938 C 132.199219 127.539062 132.097656 127.589844 132.097656 129.023438 C 132.097656 130.507812 132.148438 130.507812 135.320312 130.714844 L 138.496094 130.867188 L 135.066406 130.96875 L 131.585938 131.070312 L 131.585938 123.390625 L 135.066406 123.496094 L 138.496094 123.597656 Z M 142.027344 124.621094 C 142.183594 125.285156 142.746094 126.824219 143.257812 128.050781 L 144.179688 130.253906 L 145.40625 126.824219 C 146.074219 124.929688 146.789062 123.390625 146.996094 123.390625 C 147.199219 123.390625 147.867188 124.875 148.53125 126.71875 C 149.65625 129.894531 149.761719 129.996094 150.324219 128.921875 C 150.628906 128.257812 151.246094 126.769531 151.601562 125.542969 C 151.910156 124.363281 152.421875 123.390625 152.628906 123.390625 C 152.832031 123.390625 152.421875 125.132812 151.65625 127.230469 C 150.886719 129.332031 150.117188 131.070312 149.914062 131.070312 C 149.707031 131.070312 149.042969 129.691406 148.429688 128 C 147.8125 126.308594 147.148438 124.929688 146.996094 124.929688 C 146.789062 124.929688 146.175781 126.257812 145.613281 127.847656 C 145 129.433594 144.332031 130.816406 144.078125 130.917969 C 143.820312 131.019531 143 129.332031 142.234375 127.230469 C 141.515625 125.132812 141.054688 123.390625 141.3125 123.390625 C 141.515625 123.390625 141.875 123.957031 142.027344 124.621094 Z M 161.484375 123.851562 C 161.636719 124.109375 160.820312 124.210938 159.589844 124.058594 C 155.699219 123.699219 154.777344 126.054688 158.566406 126.769531 C 162.097656 127.386719 163.328125 128.820312 161.691406 130.457031 C 160.972656 131.175781 157.441406 131.226562 155.902344 130.558594 C 155.1875 130.253906 155.546875 130.203125 157.03125 130.40625 C 159.691406 130.765625 161.792969 130.253906 161.792969 129.28125 C 161.792969 128.359375 161.230469 128.050781 158.308594 127.335938 C 155.800781 126.667969 155.035156 125.542969 156.160156 124.160156 C 156.875 123.339844 161.023438 123.085938 161.484375 123.851562 Z M 54.273438 128 C 54.273438 128.308594 50.433594 128.511719 43.777344 128.511719 C 37.121094 128.511719 33.28125 128.308594 33.28125 128 C 33.28125 127.691406 37.121094 127.488281 43.777344 127.488281 C 50.433594 127.488281 54.273438 127.691406 54.273438 128 Z M 223.230469 128 C 223.230469 128.308594 219.390625 128.511719 212.734375 128.511719 C 206.078125 128.511719 202.238281 128.308594 202.238281 128 C 202.238281 127.691406 206.078125 127.488281 212.734375 127.488281 C 219.390625 127.488281 223.230469 127.691406 223.230469 128 Z M 58.316406 138.546875 C 59.289062 139.828125 59.390625 139.828125 59.390625 138.855469 C 59.390625 138.292969 59.648438 137.625 59.902344 137.472656 C 60.210938 137.265625 60.414062 138.34375 60.414062 140.238281 L 60.414062 143.359375 L 53.8125 143.359375 L 51.96875 140.699219 C 50.996094 139.210938 50.175781 137.832031 50.175781 137.625 C 50.175781 137.371094 51.761719 137.214844 53.707031 137.214844 C 56.933594 137.214844 57.34375 137.320312 58.316406 138.546875 Z M 77.3125 139.777344 L 77.3125 142.335938 L 81.101562 142.335938 C 90.574219 142.335938 103.066406 140.542969 107.671875 138.546875 C 108.441406 138.1875 108.542969 138.445312 108.542969 140.75 L 108.542969 143.359375 L 70.144531 143.359375 L 70.144531 137.214844 L 77.3125 137.214844 Z M 139.109375 137.832031 C 139.417969 138.1875 139.878906 139.160156 140.132812 140.03125 L 140.699219 141.566406 L 141.261719 140.03125 C 141.566406 139.160156 141.976562 138.136719 142.132812 137.726562 C 142.386719 137.164062 142.539062 137.113281 142.695312 137.574219 C 142.847656 137.933594 142.539062 139.367188 142.078125 140.800781 L 141.210938 143.359375 L 133.734375 143.359375 L 132.914062 140.953125 C 132.453125 139.621094 132.097656 138.238281 132.097656 137.882812 C 132.097656 136.960938 138.394531 136.960938 139.109375 137.832031 Z M 169.320312 137.832031 C 169.625 138.1875 170.085938 139.160156 170.34375 140.03125 L 170.90625 141.566406 L 171.46875 140.03125 C 171.777344 139.160156 172.1875 138.136719 172.339844 137.726562 C 172.59375 137.164062 172.75 137.113281 172.902344 137.574219 C 173.054688 137.933594 172.75 139.367188 172.289062 140.800781 L 171.417969 143.359375 L 164.097656 143.359375 L 163.175781 140.851562 C 162.714844 139.46875 162.304688 138.085938 162.304688 137.777344 C 162.304688 136.960938 168.703125 137.011719 169.320312 137.832031 Z M 169.320312 137.832031 "/>
</g>
</svg>
